<svg xmlns="http://www.w3.org/2000/svg" width="239.5879" height="228.1084" viewBox="0 0 239.5879 228.1084"><g><path d="M239.5879,91.5624c-4.5156,3.573-9.0566,7.1144-13.5414,10.7255q-14.73,11.86-29.4158,23.7759c-.1858.15-.3864.2822-.5751.4291-3.4553,2.6878-3.455,2.6879-4.8408-1.4207-.6736-1.997-1.4588-3.9668-1.9562-6.0068a2.5962,2.5962,0,0,1,.7659-2.16q14.4354-11.601,28.9781-23.0682a14.9553,14.9553,0,0,0,3.1532-2.9178c-1.2834,0-2.5684.0418-3.85-.0072-5.6129-.2148-11.2237-.4838-16.8372-.68-6.7406-.236-13.484-.3967-20.2234-.6625a2.1692,2.1692,0,0,1-1.6649-.919c-1.2749-3.4377-2.4016-6.93-3.8113-11.1063,3.875.212,7.1313.3838,10.3865.5765.3845.0228.76.2191,1.1434.2361,5.642.2511,11.2836.516,16.9275.7158,6.6627.2358,13.3293.3659,19.9906.6333,3.3748.1354,6.7422.4635,10.1116.7214,1.8678.1429,3.1853.9042,3.6647,2.9159.3943,1.6547,1.053,3.2463,1.5945,4.8659Z"/><path d="M48.4424,228.1084c-2.0119-1.6123-4.0716-3.17-6.0041-4.8729a2.6021,2.6021,0,0,1-.8925-2.0307c1.8364-6.8732,3.88-13.691,5.7121-20.5653,2.9708-11.1472,5.82-22.3269,8.7359-33.4887.2908-1.1129.6922-2.1969,1.17-3.6945,2.483,1.773,4.7359,3.6105,7.2069,5.0816,2.4576,1.4632,2.4785,2.9991,1.66,5.6109-2.2927,7.3187-4.077,14.7958-6.1113,22.1967-1.4042,5.1086-2.89,10.1946-4.5123,15.8965,3.5486-2.382,6.5857-4.43,9.6326-6.4641,8.2316-5.494,16.45-11.0087,24.7338-16.4226a3.0889,3.0889,0,0,1,2.7193-.2076c2.9163,1.8867,5.6745,4.0179,8.6908,6.2081-4.7773,3.0881-9.3475,6.0318-13.9072,8.9917Q69.6731,215.775,52.085,227.2255a4.2783,4.2783,0,0,0-.7682.8829Z"/><path d="M187.8492,228.1084c-3.7625-2.5849-7.479-5.24-11.2964-7.7412q-15.6877-10.2784-31.4441-20.4519c-2.1735-1.4117-4.3565-2.809-7.0245-4.5283a63.441,63.441,0,0,0,6.33-4.71c2.3691-2.2654,4.1182-2.0673,6.8285-.1883,10.2821,7.1286,20.8126,13.8989,31.2531,20.7987.2569.17.5481.2876,1.2069.6278-.748-2.876-1.3734-5.4582-2.0928-8.014q-3.8462-13.6643-7.7556-27.3107c-.17-.5937-.56-1.1223-.7492-1.7128-1.185-3.7-.9852-4.2366,2.2744-6.5967,2.1175-1.5332,4.2222-3.0841,6.683-4.8833,1.2275,4.5628,2.3691,8.7719,3.4918,12.986,2.9036,10.9,5.7825,21.8059,8.7064,32.7,1.0117,3.7692,2.1827,7.4962,3.1642,11.2729a2.7191,2.7191,0,0,1-1.2414,3.4207,56.3341,56.3341,0,0,0-5.46,4.3315Z"/><path d="M2.6977,80.6658c5.35-.34,10.3834-.7358,15.4248-.9641C28.97,79.21,39.8233,78.849,50.67,78.3432c4.2476-.1981,8.4838-.6411,13.1184-1.0032-1.17,3.7953-2.1618,7.2339-3.3392,10.6079A2.42,2.42,0,0,1,58.6,89.04c-5.5483.2552-11.1076.2927-16.6525.5969-5.5865.3065-11.1565.9056-16.7415,1.252-2.5959.161-5.21.0275-8.4447.0275,4.634,3.6581,8.7634,6.9243,12.9,10.1816,6.4821,5.1042,12.9464,10.2316,19.4725,15.2789,1.3408,1.0369,1.7258,1.8422.9186,3.5473a51.4376,51.4376,0,0,0-2.12,6.7524c-.6756,2.164-1.2643,2.3579-2.9413.9973Q24.8583,111.3389,4.7306,94.9974A18.0259,18.0259,0,0,0,2.11,92.9616C-.5888,91.5073-.154,89.2066.468,86.9666,1.0681,84.8054,1.9567,82.7242,2.6977,80.6658Z"/><path d="M119.883,16.2142c-3.6425,9.8933-7.1567,19.4374-10.67,28.9816-1.1938,3.2428-2.3359,6.5062-3.62,9.7126-.266.6639-1.0406,1.5691-1.6124,1.5926-3.57.1463-7.1486.0738-11.2351.0738.8139-2.15,1.4841-3.9318,2.1627-5.7107q6.3962-16.7675,12.7972-33.533c1.9581-5.1234,3.9865-10.2209,5.8681-15.3721.4791-1.3117,1.041-1.96,2.5161-1.8824a36.47,36.47,0,0,0,6.4536-.0278c2.3519-.2976,3.4036.783,4.14,2.7529,4.0033,10.7129,8.008,21.4256,12.0884,32.1093,2.266,5.9328,4.7029,11.8,7.0091,17.7181a35.3649,35.3649,0,0,1,1.0045,3.7949h-11.83C130.008,43.2286,124.9965,29.8576,119.883,16.2142Z"/><path d="M153.6238,145.2756c.4622-3.5683.8538-6.7528,1.2918-9.931.5169-3.75,1.0457-7.5,1.6211-11.2413.6056-3.9376,1.2892-7.8633,1.905-11.7994.28-1.7893.4527-3.5952.72-5.3867.6142-4.117,1.2955-8.2244,1.8759-12.346.5359-3.8055.9675-7.6256,1.46-11.4373.4647-3.5922.8964-7.19,1.4405-10.77q.831-5.4693,1.89-10.902a2.824,2.824,0,0,1,1.2792-1.9106c2.974-1.1048,6.0207-2.0174,9.0583-2.9437a5.7761,5.7761,0,0,1,1.7037.1254c-.2845,1.7576-.5517,3.3486-.7982,4.9428-.839,5.4252-1.6979,10.8476-2.4961,16.2789-.56,3.8122-1.0046,7.6414-1.5543,11.4552-.5589,3.878-1.2024,7.7438-1.7738,11.62-.54,3.6659-1.002,7.3434-1.5588,11.0067-.5993,3.9428-1.3,7.87-1.8929,11.8141-.2457,1.6346-.28,3.3-.4911,4.941-.4621,3.5872-.8847,7.1845-1.5341,10.7391a3.4762,3.4762,0,0,1-1.7569,2.2981C160.8231,143.0573,157.5265,144.0113,153.6238,145.2756Z"/><path d="M203.1057,158.7026c-5.0467.8212-9.503,1.5083-13.9447,2.28-4.55.79-9.08,1.6947-13.6292,2.4868-3.089.5378-6.2068.9119-9.2938,1.46-4.4544.7906-8.8867,1.7052-13.34,2.504-3.1607.567-6.3465.9937-9.5093,1.55-3.3545.59-6.6874,1.3041-10.044,1.8808-3.087.53-6.1925.9541-9.2916,1.4126-.3123.0462-.6938-.1038-.9478.0252-4.35,2.21-6.4534-.5309-8.419-3.7283a26.6162,26.6162,0,0,0-2.4223-3.241c-1.1584-1.3642-.9688-2.2851.8074-2.6311,3.0746-.5988,6.1667-1.1075,9.2524-1.6483,4.7029-.8242,9.4031-1.6645,14.1112-2.4576,3.1562-.5317,6.3347-.9347,9.4843-1.5,4.5967-.8257,9.1712-1.7748,13.7654-2.6152,2.9085-.5321,5.84-.9375,8.7534-1.4445,3.6075-.6277,7.1982-1.3553,10.812-1.9421,4.4714-.726,9.0711-.95,13.402-2.1564,3.0907-.8612,4.0247.7283,5.3219,2.6326C199.529,153.851,201.1949,156.0575,203.1057,158.7026Z"/><path d="M79.8709,127.4633c.2181.5119.3715.9455.58,1.3507,4.0458,7.8551,8.058,15.7279,12.1583,23.5546q10.0467,19.1775,20.186,38.3065c1.9888,3.7714,3.9641,7.55,5.9828,11.3055a2.5509,2.5509,0,0,1-.2379,3.3552c-1.8661,2.2457-3.3643,4.7956-5.0433,7.1994-.7517,1.0761-1.4029,1.1022-2.0716-.1731Q104.9961,200.1008,98.5,187.8744c-5.7619-10.8571-11.5706-21.69-17.3076-32.56q-4.2483-8.05-8.27-16.2176a3.026,3.026,0,0,1,.0332-2.5217c1.7456-2.7253,3.6895-5.324,5.5811-7.9546A10.9856,10.9856,0,0,1,79.8709,127.4633Z"/><path d="M150.5069,98.5969c-2.0687-.8917-3.7917-1.543-5.4338-2.3574-9.0661-4.4963-18.0951-9.0676-27.17-13.546-10.96-5.4087-21.9576-10.7415-32.93-16.1258-3.5923-1.7628-7.1623-3.5714-10.7244-5.3946-.4306-.22-1.0617-.6566-1.0688-1.0035-.077-3.7905-.0482-7.5832-.0482-11.8218,4.0765,1.9346,7.6958,3.5953,11.2657,5.3562q24.2673,11.97,48.5129,23.9841c5.4795,2.7074,10.9844,5.3637,16.4427,8.1129a2.2227,2.2227,0,0,1,1.103,1.5455C150.5539,90.9224,150.5069,94.5022,150.5069,98.5969Z"/><path d="M104.732,87.46c-2.0805,2.2515-3.818,4.2311-5.6606,6.1075C93.4978,99.2431,87.86,104.8558,82.29,110.5345q-15.1227,15.4172-30.1913,30.8872c-1.8771,1.9248-3.7493,3.8624-5.4979,5.9021-1.2721,1.484-2.4339,2.1075-4.4764,1.2321-2.8058-1.2024-5.8014-1.9619-9.1945-3.0671,2.8029-3.0153,5.1389-5.6486,7.6025-8.1565,8.141-8.2872,16.3425-16.515,24.4929-24.793q9.7042-9.8563,19.338-19.7819c2.5407-2.6144,5.02-5.2888,7.4969-7.9645a1.91,1.91,0,0,1,2.5851-.5658C97.6008,85.4813,100.9294,86.3,104.732,87.46Z"/></g></svg>
